name Walk9.mot
datacolumns 19
datarows 17
range 1.99500000 2.07500000
endheader

                time	   L_ground_force_vx	   L_ground_force_vy	   L_ground_force_vz	   L_ground_force_px	   L_ground_force_py	   L_ground_force_pz	   R_ground_force_vx	   R_ground_force_vy	   R_ground_force_vz	   R_ground_force_px	   R_ground_force_py	   R_ground_force_pz	   L_ground_torque_x	   L_ground_torque_y	   L_ground_torque_z	   R_ground_torque_x	   R_ground_torque_y	   R_ground_torque_z	
          1.99500000	          0.12900366	          0.42893984	         -0.00487702	         -0.00014181	          0.00000000	         -0.00004554	        -21.73416501	        664.79359345	        -48.88221286	          0.15775655	          0.00000000	          0.06394761	          0.00000000	         -0.00040057	          0.00000000	          0.00000000	          7.90264300	          0.00000000	
          2.00000000	          0.10948878	          0.36467402	         -0.00748662	         -0.00022975	          0.00000000	         -0.00007585	        -19.47012225	        658.83511510	        -48.62592075	          0.15975117	          0.00000000	          0.06420651	          0.00000000	         -0.00033311	          0.00000000	          0.00000000	          7.85821086	          0.00000000	
          2.00500000	          0.08831502	          0.29462029	         -0.00856800	         -0.00026797	          0.00000000	         -0.00008929	        -17.31263436	        654.19638809	        -48.36771956	          0.16164371	          0.00000000	          0.06442416	          0.00000000	         -0.00026350	          0.00000000	          0.00000000	          7.78261685	          0.00000000	
          2.01000000	          0.06775205	          0.22639529	         -0.00858384	         -0.00027129	          0.00000000	         -0.00009084	        -15.25004725	        650.84674897	        -48.10000816	          0.16343491	          0.00000000	          0.06459968	          0.00000000	         -0.00019803	          0.00000000	          0.00000000	          7.67581821	          0.00000000	
          2.01500000	          0.04920705	          0.16473879	         -0.00791513	         -0.00025196	          0.00000000	         -0.00008466	        -13.27310787	        648.72953489	        -47.81220074	          0.16513065	          0.00000000	          0.06473270	          0.00000000	         -0.00014038	          0.00000000	          0.00000000	          7.53780303	          0.00000000	
          2.02000000	          0.03342282	          0.11217082	         -0.00686030	         -0.00021964	          0.00000000	         -0.00007399	        -11.37430640	        647.76533272	        -47.49354565	          0.16673909	          0.00000000	          0.06482303	          0.00000000	         -0.00009231	          0.00000000	          0.00000000	          7.36906548	          0.00000000	
          2.02500000	          0.02065736	          0.06958865	         -0.00564129	         -0.00018154	          0.00000000	         -0.00006130	         -9.54740190	        647.85808131	        -47.13515452	          0.16826949	          0.00000000	          0.06487176	          0.00000000	         -0.00005418	          0.00000000	          0.00000000	          7.17018681	          0.00000000	
          2.03000000	          0.01083736	          0.03677790	         -0.00441341	         -0.00014275	          0.00000000	         -0.00004832	         -7.78636815	        648.90142130	        -46.73191280	          0.16973127	          0.00000000	          0.06488180	          0.00000000	         -0.00002544	          0.00000000	          0.00000000	          6.94188043	          0.00000000	
          2.03500000	          0.00368289	          0.01282832	         -0.00327694	         -0.00010659	          0.00000000	         -0.00003617	         -6.08422183	        650.78260788	        -46.28398358	          0.17113430	          0.00000000	          0.06485800	          0.00000000	         -0.00000500	          0.00000000	          0.00000000	          6.68507581	          0.00000000	
          2.04000000	         -0.00119641	         -0.00354465	         -0.00228899	         -0.00007497	          0.00000000	         -0.00002552	         -4.43289564	        653.38421212	        -45.79746865	          0.17248841	          0.00000000	          0.06480505	          0.00000000	          0.00000850	          0.00000000	          0.00000000	          6.40066729	          0.00000000	
          2.04500000	         -0.00423079	         -0.01376397	         -0.00147439	         -0.00004876	          0.00000000	         -0.00001667	         -2.82281969	        656.58773736	        -45.28433476	          0.17380277	          0.00000000	          0.06472568	          0.00000000	          0.00001649	          0.00000000	          0.00000000	          6.08924906	          0.00000000	
          2.05000000	         -0.00584207	         -0.01922887	         -0.00083541	         -0.00002810	          0.00000000	         -0.00000968	         -1.24263349	        660.27927859	        -44.76136597	          0.17508631	          0.00000000	          0.06462232	          0.00000000	          0.00002031	          0.00000000	          0.00000000	          5.75121128	          0.00000000	
          2.05500000	         -0.00641332	         -0.02121263	         -0.00035957	         -0.00001262	          0.00000000	         -0.00000443	          0.32126444	        664.35187266	        -44.24747111	          0.17634515	          0.00000000	          0.06449800	          0.00000000	          0.00002115	          0.00000000	          0.00000000	          5.38705432	          0.00000000	
          2.06000000	         -0.00627243	         -0.02080711	         -0.00002598	         -0.00000170	          0.00000000	         -0.00000071	          1.88435685	        668.70722854	        -43.76041753	          0.17758101	          0.00000000	          0.06435590	          0.00000000	          0.00002002	          0.00000000	          0.00000000	          4.99722738	          0.00000000	
          2.06500000	         -0.00568601	         -0.01890147	          0.00019000	          0.00000543	          0.00000000	          0.00000173	          3.46275689	        673.26328147	        -43.31521273	          0.17879558	          0.00000000	          0.06419947	          0.00000000	          0.00001771	          0.00000000	          0.00000000	          4.58204077	          0.00000000	
          2.07000000	         -0.00486026	         -0.01618454	          0.00031347	          0.00000958	          0.00000000	          0.00000316	          5.07295532	        677.95927374	        -42.92382759	          0.17999090	          0.00000000	          0.06403193	          0.00000000	          0.00001483	          0.00000000	          0.00000000	          4.14230720	          0.00000000	
          2.07500000	         -0.00394633	         -0.01316223	          0.00036786	          0.00001148	          0.00000000	          0.00000382	          6.73124991	        682.75422277	        -42.59555128	          0.18116694	          0.00000000	          0.06385492	          0.00000000	          0.00001181	          0.00000000	          0.00000000	          3.67983013	          0.00000000	
